<svg width="18" height="18" viewBox="0 0 18 18" fill="none" xmlns="http://www.w3.org/2000/svg">
<path d="M14.2795 13.9994C14.751 13.9994 15.2032 14.1867 15.5366 14.5201C15.87 14.8535 16.0573 15.3057 16.0573 15.7772C16.0573 16.2487 15.87 16.7009 15.5366 17.0343C15.2032 17.3677 14.751 17.555 14.2795 17.555C13.808 17.555 13.3558 17.3677 13.0224 17.0343C12.689 16.7009 12.5017 16.2487 12.5017 15.7772C12.5017 15.3057 12.689 14.8535 13.0224 14.5201C13.3558 14.1867 13.808 13.9994 14.2795 13.9994ZM14.2795 14.8883C14.0438 14.8883 13.8177 14.9819 13.651 15.1486C13.4843 15.3153 13.3906 15.5414 13.3906 15.7772C13.3906 16.0129 13.4843 16.239 13.651 16.4057C13.8177 16.5724 14.0438 16.6661 14.2795 16.6661C14.5153 16.6661 14.7414 16.5724 14.9081 16.4057C15.0748 16.239 15.1684 16.0129 15.1684 15.7772C15.1684 15.5414 15.0748 15.3153 14.9081 15.1486C14.7414 14.9819 14.5153 14.8883 14.2795 14.8883ZM6.2795 13.9994C6.751 13.9994 7.20319 14.1867 7.53658 14.5201C7.86998 14.8535 8.05728 15.3057 8.05728 15.7772C8.05728 16.2487 7.86998 16.7009 7.53658 17.0343C7.20319 17.3677 6.751 17.555 6.2795 17.555C5.80801 17.555 5.35582 17.3677 5.02242 17.0343C4.68903 16.7009 4.50173 16.2487 4.50173 15.7772C4.50173 15.3057 4.68903 14.8535 5.02242 14.5201C5.35582 14.1867 5.80801 13.9994 6.2795 13.9994ZM6.2795 14.8883C6.04376 14.8883 5.81766 14.9819 5.65096 15.1486C5.48427 15.3153 5.39061 15.5414 5.39061 15.7772C5.39061 16.0129 5.48427 16.239 5.65096 16.4057C5.81766 16.5724 6.04376 16.6661 6.2795 16.6661C6.51525 16.6661 6.74135 16.5724 6.90804 16.4057C7.07474 16.239 7.16839 16.0129 7.16839 15.7772C7.16839 15.5414 7.07474 15.3153 6.90804 15.1486C6.74135 14.9819 6.51525 14.8883 6.2795 14.8883ZM16.0573 3.33273H3.85284L6.1195 8.66606H13.3906C13.684 8.66606 13.9417 8.52384 14.1017 8.31051L16.7684 4.75495C16.884 4.60384 16.9462 4.41717 16.9462 4.22162C16.9462 3.98587 16.8525 3.75978 16.6858 3.59308C16.5191 3.42638 16.293 3.33273 16.0573 3.33273ZM13.3906 9.55495H6.16395L5.4795 10.9416L5.39061 11.3327C5.39061 11.5685 5.48427 11.7946 5.65096 11.9613C5.81766 12.128 6.04376 12.2216 6.2795 12.2216H16.0573V13.1105H6.2795C5.80801 13.1105 5.35582 12.9232 5.02242 12.5898C4.68903 12.2564 4.50173 11.8042 4.50173 11.3327C4.50146 11.0311 4.57793 10.7344 4.72395 10.4705L5.36395 9.16384L2.13728 1.55495H0.946167V0.666058H2.72395L3.4795 2.44384H16.0573C16.5288 2.44384 16.981 2.63114 17.3144 2.96454C17.6478 3.29793 17.8351 3.75012 17.8351 4.22162C17.8351 4.66606 17.684 5.03939 17.4351 5.34162L14.8484 8.7994C14.5284 9.25273 13.9951 9.55495 13.3906 9.55495Z" fill="#151515"/>
</svg>
