<svg width="10" height="6" viewBox="0 0 10 6" fill="none" xmlns="http://www.w3.org/2000/svg">
<path d="M5.27001 4.965L9.25251 0.785252C9.31899 0.715511 9.35608 0.622855 9.35608 0.526502C9.35608 0.430149 9.31899 0.337494 9.25251 0.267753L9.24801 0.263252C9.21578 0.229326 9.17698 0.202311 9.13398 0.183851C9.09098 0.16539 9.04468 0.155871 8.99788 0.155871C8.95109 0.155871 8.90478 0.16539 8.86178 0.183851C8.81878 0.202311 8.77999 0.229326 8.74776 0.263252L4.99776 4.19925L1.24926 0.263252C1.21703 0.229325 1.17824 0.20231 1.13524 0.18385C1.09224 0.16539 1.04593 0.15587 0.999135 0.15587C0.952341 0.15587 0.906035 0.16539 0.863035 0.18385C0.820035 0.20231 0.78124 0.229325 0.749011 0.263252L0.74451 0.267752C0.678027 0.337493 0.640938 0.430148 0.640938 0.526501C0.640938 0.622854 0.678027 0.71551 0.74451 0.785251L4.72701 4.965C4.76203 5.00176 4.80415 5.03102 4.85082 5.05102C4.89749 5.07101 4.94774 5.08133 4.99851 5.08133C5.04928 5.08133 5.09952 5.07101 5.14619 5.05102C5.19286 5.03102 5.23499 5.00176 5.27001 4.965Z" fill="#ECECEC"/>
</svg>
