<svg width="20" height="20" viewBox="0 0 20 20" fill="none" xmlns="http://www.w3.org/2000/svg">
<path fill-rule="evenodd" clip-rule="evenodd" d="M0.546094 2.42396C0.455568 1.39743 1.25026 0.5 2.28963 0.5H5.74363C6.60868 0.5 7.369 1.14034 7.46173 2.01515L7.46174 2.0152C7.53868 2.74253 7.68309 3.46113 7.8931 4.16171L7.89333 4.16247C8.0318 4.62977 8.04184 5.12604 7.92112 5.59864C7.80048 6.0709 7.55432 6.50172 7.20874 6.84545C7.20862 6.84556 7.20851 6.84567 7.20839 6.84579L5.86311 8.19107C7.25446 10.6867 9.31342 12.7457 11.8091 14.137L13.1544 12.7917C13.1544 12.7916 13.1545 12.7916 13.1546 12.7915C13.4984 12.4459 13.9293 12.1998 14.4016 12.0793C14.874 11.9587 15.3703 11.9682 15.8377 12.1068L15.8384 12.107C16.539 12.3169 17.2576 12.4611 17.9849 12.5379L17.985 12.5379C18.4246 12.5845 18.8109 12.8012 19.083 13.169C19.3527 13.5335 19.5001 14.0317 19.5001 14.633V17.713C19.5001 18.7529 18.6027 19.5445 17.5762 19.454L17.5761 19.454C8.54094 18.6554 1.34426 11.4592 0.546097 2.424L0.546094 2.42396ZM2.28963 1C1.55199 1 0.978686 1.63757 1.04416 2.38004C1.821 11.1738 8.82628 18.1786 17.6201 18.956C18.3636 19.0215 19.0001 18.4501 19.0001 17.713V14.633C19.0001 14.1103 18.872 13.7245 18.6811 13.4664C18.4926 13.2116 18.2332 13.067 17.9323 13.0351C17.1743 12.9551 16.4254 12.8048 15.6953 12.5861C15.3144 12.4732 14.9101 12.4655 14.5253 12.5637C14.1403 12.662 13.7891 12.8626 13.5089 13.1443L13.5084 13.1448L12.0299 14.6233C11.9517 14.7015 11.8313 14.719 11.734 14.6663C9.0251 13.1987 6.80141 10.975 5.33381 8.26609C5.28111 8.16881 5.29862 8.04846 5.37685 7.97022L6.85535 6.49172L6.85586 6.49121C7.13763 6.21106 7.33833 5.85987 7.43667 5.4749C7.53493 5.09023 7.52689 4.68595 7.41404 4.30491C7.1952 3.57477 7.04471 2.82586 6.96452 2.06785C6.90026 1.46166 6.36758 1 5.74363 1H2.28963Z" fill="white" fill-opacity="0.5"/>
</svg>
