<svg width="204" height="40" viewBox="0 0 204 40" fill="none" xmlns="http://www.w3.org/2000/svg">
<mask id="path-1-outside-1_0_564" maskUnits="userSpaceOnUse" x="0" y="2" width="117" height="28" fill="black">
<rect fill="white" y="2" width="117" height="28"/>
<path d="M13.3529 28.455C11.7317 28.455 10.2244 28.1469 8.8308 27.5307C7.43721 26.905 6.21427 26.0423 5.16197 24.9426C4.11915 23.8335 3.30385 22.5394 2.71608 21.0605C2.13778 19.5816 1.84864 17.9889 1.84864 16.2825C1.84864 14.6614 2.11882 13.1208 2.65919 11.6609C3.19957 10.1915 3.98168 8.89267 5.00554 7.76452C6.0294 6.63638 7.26657 5.74524 8.71704 5.09111C10.177 4.43697 11.8171 4.10991 13.6373 4.10991C14.737 4.10991 15.813 4.23789 16.8653 4.49385C17.9176 4.74982 18.9083 5.11481 19.8373 5.58882C20.7758 6.06283 21.6196 6.63638 22.3685 7.30947L20.5768 10.182C19.7235 9.32875 18.6807 8.6604 17.4483 8.17691C16.2159 7.68394 14.955 7.43745 13.6657 7.43745C12.4238 7.43745 11.3194 7.66024 10.3524 8.10581C9.38539 8.55138 8.56536 9.17707 7.89226 9.98289C7.22865 10.7792 6.72146 11.7035 6.37069 12.7558C6.0294 13.7987 5.85876 14.9221 5.85876 16.1261C5.85876 17.4248 6.05311 18.6193 6.44179 19.7096C6.83048 20.7903 7.37085 21.7336 8.06291 22.5394C8.76444 23.3357 9.57974 23.952 10.5088 24.388C11.4379 24.8147 12.438 25.028 13.5093 25.028C14.3815 25.028 15.2252 24.8858 16.0405 24.6013C16.8558 24.3169 17.5858 23.9093 18.2304 23.3784C18.8751 22.8475 19.387 22.2171 19.7662 21.4871C20.1454 20.7571 20.335 19.9513 20.335 19.0697V18.5577H13.2818V15.6426H24.1318V18.6715C24.1318 20.1883 23.8285 21.5487 23.2217 22.7527C22.615 23.9567 21.795 24.9853 20.7616 25.8385C19.7378 26.6823 18.5859 27.3316 17.3061 27.7867C16.0263 28.2323 14.7085 28.455 13.3529 28.455ZM28.4599 28V3.5411H32.0008V28H28.4599ZM44.4971 28.455C42.9234 28.455 41.5013 28.128 40.231 27.4738C38.9701 26.8197 37.97 25.9096 37.2305 24.7436C36.491 23.5775 36.1213 22.236 36.1213 20.7192C36.1213 19.1929 36.491 17.8515 37.2305 16.6949C37.97 15.5288 38.9701 14.6187 40.231 13.9646C41.4919 13.3104 42.9139 12.9834 44.4971 12.9834C46.0708 12.9834 47.4881 13.3104 48.7489 13.9646C50.0193 14.6187 51.0194 15.5288 51.7494 16.6949C52.4889 17.8515 52.8586 19.1929 52.8586 20.7192C52.8586 22.236 52.4889 23.5775 51.7494 24.7436C51.0194 25.9096 50.0193 26.8197 48.7489 27.4738C47.4881 28.128 46.0708 28.455 44.4971 28.455ZM44.4971 25.4119C45.3882 25.4119 46.1845 25.2128 46.8861 24.8147C47.5971 24.407 48.1564 23.8524 48.5641 23.1509C48.9717 22.4399 49.1756 21.6293 49.1756 20.7192C49.1756 19.7996 48.9717 18.9891 48.5641 18.2875C48.1564 17.5765 47.5971 17.0219 46.8861 16.6238C46.1845 16.2256 45.3882 16.0265 44.4971 16.0265C43.6154 16.0265 42.8191 16.2256 42.1081 16.6238C41.3971 17.0219 40.8377 17.5765 40.4301 18.2875C40.0224 18.9891 39.8186 19.7996 39.8186 20.7192C39.8186 21.6293 40.0224 22.4399 40.4301 23.1509C40.8377 23.8524 41.3971 24.407 42.1081 24.8147C42.8191 25.2128 43.6154 25.4119 44.4971 25.4119ZM60.904 28.455C59.681 28.455 58.5908 28.2275 57.6333 27.7725C56.6853 27.3079 55.9126 26.6443 55.3154 25.7816L56.8796 23.4779C57.4389 24.2174 58.0599 24.791 58.7425 25.1986C59.4345 25.6063 60.1503 25.8101 60.8897 25.8101C61.3448 25.8101 61.7477 25.7295 62.0985 25.5683C62.4492 25.3977 62.7289 25.1559 62.9375 24.8431C63.146 24.5208 63.2503 24.1416 63.2503 23.7055C63.2503 23.2504 63.1318 22.8949 62.8948 22.6389C62.6578 22.383 62.3023 22.1507 61.8283 21.9422C61.3543 21.7336 60.757 21.4871 60.0365 21.2027C59.4298 20.9467 58.8515 20.6623 58.3016 20.3495C57.7518 20.0366 57.2967 19.6432 56.9365 19.1692C56.5857 18.6857 56.4103 18.0742 56.4103 17.3348C56.4103 16.491 56.6426 15.7421 57.1071 15.088C57.5811 14.4338 58.2258 13.9219 59.0411 13.5522C59.8659 13.1825 60.8044 12.9976 61.8567 12.9976C62.6151 12.9976 63.3783 13.1351 64.1462 13.41C64.9141 13.6754 65.682 14.0641 66.4499 14.576L65.17 16.8086C64.0609 15.889 62.9659 15.4293 61.8852 15.4293C61.25 15.4293 60.7381 15.5809 60.3494 15.8843C59.9702 16.1877 59.7806 16.5764 59.7806 17.0504C59.7806 17.4391 59.9465 17.7709 60.2783 18.0458C60.6101 18.3207 61.0225 18.5625 61.5154 18.771C62.0084 18.9796 62.5014 19.1787 62.9943 19.3683C63.7717 19.6527 64.4543 19.9561 65.0421 20.2784C65.6298 20.6007 66.0896 21.0178 66.4214 21.5298C66.7532 22.0417 66.9191 22.7243 66.9191 23.5775C66.9191 24.6013 66.6727 25.4783 66.1797 26.2082C65.6962 26.9382 65.0041 27.4975 64.1035 27.8862C63.2029 28.2654 62.1364 28.455 60.904 28.455ZM75.1487 28.455C73.9257 28.455 72.8355 28.2275 71.878 27.7725C70.93 27.3079 70.1574 26.6443 69.5601 25.7816L71.1243 23.4779C71.6837 24.2174 72.3046 24.791 72.9872 25.1986C73.6793 25.6063 74.395 25.8101 75.1345 25.8101C75.5895 25.8101 75.9924 25.7295 76.3432 25.5683C76.694 25.3977 76.9736 25.1559 77.1822 24.8431C77.3908 24.5208 77.495 24.1416 77.495 23.7055C77.495 23.2504 77.3765 22.8949 77.1395 22.6389C76.9025 22.383 76.547 22.1507 76.073 21.9422C75.599 21.7336 75.0017 21.4871 74.2813 21.2027C73.6745 20.9467 73.0962 20.6623 72.5464 20.3495C71.9965 20.0366 71.5415 19.6432 71.1812 19.1692C70.8305 18.6857 70.6551 18.0742 70.6551 17.3348C70.6551 16.491 70.8873 15.7421 71.3519 15.088C71.8259 14.4338 72.4705 13.9219 73.2858 13.5522C74.1106 13.1825 75.0491 12.9976 76.1015 12.9976C76.8599 12.9976 77.623 13.1351 78.3909 13.41C79.1588 13.6754 79.9267 14.0641 80.6946 14.576L79.4148 16.8086C78.3056 15.889 77.2106 15.4293 76.1299 15.4293C75.4947 15.4293 74.9828 15.5809 74.5941 15.8843C74.2149 16.1877 74.0253 16.5764 74.0253 17.0504C74.0253 17.4391 74.1912 17.7709 74.523 18.0458C74.8548 18.3207 75.2672 18.5625 75.7602 18.771C76.2531 18.9796 76.7461 19.1787 77.2391 19.3683C78.0164 19.6527 78.699 19.9561 79.2868 20.2784C79.8746 20.6007 80.3344 21.0178 80.6662 21.5298C80.998 22.0417 81.1639 22.7243 81.1639 23.5775C81.1639 24.6013 80.9174 25.4783 80.4244 26.2082C79.9409 26.9382 79.2489 27.4975 78.3483 27.8862C77.4476 28.2654 76.3811 28.455 75.1487 28.455Z"/>
<path d="M99.3945 28.455C97.9725 28.455 96.7021 28.1991 95.5835 27.6872C94.4743 27.1657 93.5974 26.431 92.9527 25.483C92.3176 24.5255 92 23.3974 92 22.0986C92 20.5628 92.4692 19.2213 93.4078 18.0742C94.3558 16.9271 95.7731 15.9459 97.6596 15.1306C96.9771 14.3627 96.432 13.6802 96.0243 13.0829C95.6167 12.4762 95.3228 11.9026 95.1427 11.3623C94.972 10.8124 94.8867 10.2531 94.8867 9.68426C94.8867 8.5182 95.1711 7.51804 95.7399 6.68378C96.3182 5.84952 97.0908 5.20961 98.0578 4.76404C99.0343 4.31847 100.12 4.09569 101.314 4.09569C102.348 4.09569 103.258 4.25211 104.045 4.56496C104.841 4.86832 105.505 5.29019 106.035 5.83056C106.576 6.36145 106.983 6.96345 107.258 7.63654C107.533 8.30015 107.671 8.98747 107.671 9.69848C107.671 10.9214 107.263 12.0069 106.448 12.9549C105.632 13.8935 104.447 14.7656 102.893 15.5715L107.671 20.6908C107.908 20.4917 108.168 20.2405 108.453 19.9371C108.747 19.6337 109.041 19.3209 109.335 18.9986C109.638 18.6667 109.913 18.3539 110.159 18.06C110.415 17.7566 110.619 17.5149 110.771 17.3348L113.089 19.482C112.605 20.0983 112.084 20.7382 111.524 21.4018C110.965 22.0559 110.458 22.6105 110.003 23.0656L114.624 28H109.96L107.258 25.0991C106.13 26.1703 104.903 26.9998 103.575 27.5876C102.258 28.1659 100.864 28.455 99.3945 28.455ZM99.878 24.9284C100.731 24.9284 101.58 24.7293 102.423 24.3312C103.277 23.9235 104.082 23.3405 104.841 22.5821L99.5936 17.1357C98.5034 17.6002 97.6549 18.2212 97.0482 18.9986C96.4414 19.7759 96.1381 20.6339 96.1381 21.5724C96.1381 22.2834 96.304 22.8902 96.6358 23.3926C96.9771 23.8951 97.4321 24.279 98.0009 24.5445C98.5697 24.8004 99.1954 24.9284 99.878 24.9284ZM100.973 13.5095C101.712 13.1208 102.338 12.7369 102.85 12.3577C103.371 11.9785 103.76 11.5708 104.016 11.1347C104.282 10.6986 104.414 10.2057 104.414 9.65582C104.414 9.08701 104.282 8.58456 104.016 8.14847C103.76 7.71238 103.409 7.37583 102.964 7.13883C102.528 6.89234 102.035 6.7691 101.485 6.7691C100.926 6.7691 100.433 6.89234 100.006 7.13883C99.5794 7.37583 99.2428 7.70764 98.9964 8.13425C98.7499 8.56086 98.6266 9.04435 98.6266 9.58472C98.6266 10.0018 98.7025 10.4048 98.8541 10.7934C99.0153 11.1821 99.2665 11.5945 99.6078 12.0306C99.9491 12.4667 100.404 12.9597 100.973 13.5095Z"/>
</mask>
<path d="M13.3529 28.455C11.7317 28.455 10.2244 28.1469 8.8308 27.5307C7.43721 26.905 6.21427 26.0423 5.16197 24.9426C4.11915 23.8335 3.30385 22.5394 2.71608 21.0605C2.13778 19.5816 1.84864 17.9889 1.84864 16.2825C1.84864 14.6614 2.11882 13.1208 2.65919 11.6609C3.19957 10.1915 3.98168 8.89267 5.00554 7.76452C6.0294 6.63638 7.26657 5.74524 8.71704 5.09111C10.177 4.43697 11.8171 4.10991 13.6373 4.10991C14.737 4.10991 15.813 4.23789 16.8653 4.49385C17.9176 4.74982 18.9083 5.11481 19.8373 5.58882C20.7758 6.06283 21.6196 6.63638 22.3685 7.30947L20.5768 10.182C19.7235 9.32875 18.6807 8.6604 17.4483 8.17691C16.2159 7.68394 14.955 7.43745 13.6657 7.43745C12.4238 7.43745 11.3194 7.66024 10.3524 8.10581C9.38539 8.55138 8.56536 9.17707 7.89226 9.98289C7.22865 10.7792 6.72146 11.7035 6.37069 12.7558C6.0294 13.7987 5.85876 14.9221 5.85876 16.1261C5.85876 17.4248 6.05311 18.6193 6.44179 19.7096C6.83048 20.7903 7.37085 21.7336 8.06291 22.5394C8.76444 23.3357 9.57974 23.952 10.5088 24.388C11.4379 24.8147 12.438 25.028 13.5093 25.028C14.3815 25.028 15.2252 24.8858 16.0405 24.6013C16.8558 24.3169 17.5858 23.9093 18.2304 23.3784C18.8751 22.8475 19.387 22.2171 19.7662 21.4871C20.1454 20.7571 20.335 19.9513 20.335 19.0697V18.5577H13.2818V15.6426H24.1318V18.6715C24.1318 20.1883 23.8285 21.5487 23.2217 22.7527C22.615 23.9567 21.795 24.9853 20.7616 25.8385C19.7378 26.6823 18.5859 27.3316 17.3061 27.7867C16.0263 28.2323 14.7085 28.455 13.3529 28.455ZM28.4599 28V3.5411H32.0008V28H28.4599ZM44.4971 28.455C42.9234 28.455 41.5013 28.128 40.231 27.4738C38.9701 26.8197 37.97 25.9096 37.2305 24.7436C36.491 23.5775 36.1213 22.236 36.1213 20.7192C36.1213 19.1929 36.491 17.8515 37.2305 16.6949C37.97 15.5288 38.9701 14.6187 40.231 13.9646C41.4919 13.3104 42.9139 12.9834 44.4971 12.9834C46.0708 12.9834 47.4881 13.3104 48.7489 13.9646C50.0193 14.6187 51.0194 15.5288 51.7494 16.6949C52.4889 17.8515 52.8586 19.1929 52.8586 20.7192C52.8586 22.236 52.4889 23.5775 51.7494 24.7436C51.0194 25.9096 50.0193 26.8197 48.7489 27.4738C47.4881 28.128 46.0708 28.455 44.4971 28.455ZM44.4971 25.4119C45.3882 25.4119 46.1845 25.2128 46.8861 24.8147C47.5971 24.407 48.1564 23.8524 48.5641 23.1509C48.9717 22.4399 49.1756 21.6293 49.1756 20.7192C49.1756 19.7996 48.9717 18.9891 48.5641 18.2875C48.1564 17.5765 47.5971 17.0219 46.8861 16.6238C46.1845 16.2256 45.3882 16.0265 44.4971 16.0265C43.6154 16.0265 42.8191 16.2256 42.1081 16.6238C41.3971 17.0219 40.8377 17.5765 40.4301 18.2875C40.0224 18.9891 39.8186 19.7996 39.8186 20.7192C39.8186 21.6293 40.0224 22.4399 40.4301 23.1509C40.8377 23.8524 41.3971 24.407 42.1081 24.8147C42.8191 25.2128 43.6154 25.4119 44.4971 25.4119ZM60.904 28.455C59.681 28.455 58.5908 28.2275 57.6333 27.7725C56.6853 27.3079 55.9126 26.6443 55.3154 25.7816L56.8796 23.4779C57.4389 24.2174 58.0599 24.791 58.7425 25.1986C59.4345 25.6063 60.1503 25.8101 60.8897 25.8101C61.3448 25.8101 61.7477 25.7295 62.0985 25.5683C62.4492 25.3977 62.7289 25.1559 62.9375 24.8431C63.146 24.5208 63.2503 24.1416 63.2503 23.7055C63.2503 23.2504 63.1318 22.8949 62.8948 22.6389C62.6578 22.383 62.3023 22.1507 61.8283 21.9422C61.3543 21.7336 60.757 21.4871 60.0365 21.2027C59.4298 20.9467 58.8515 20.6623 58.3016 20.3495C57.7518 20.0366 57.2967 19.6432 56.9365 19.1692C56.5857 18.6857 56.4103 18.0742 56.4103 17.3348C56.4103 16.491 56.6426 15.7421 57.1071 15.088C57.5811 14.4338 58.2258 13.9219 59.0411 13.5522C59.8659 13.1825 60.8044 12.9976 61.8567 12.9976C62.6151 12.9976 63.3783 13.1351 64.1462 13.41C64.9141 13.6754 65.682 14.0641 66.4499 14.576L65.17 16.8086C64.0609 15.889 62.9659 15.4293 61.8852 15.4293C61.25 15.4293 60.7381 15.5809 60.3494 15.8843C59.9702 16.1877 59.7806 16.5764 59.7806 17.0504C59.7806 17.4391 59.9465 17.7709 60.2783 18.0458C60.6101 18.3207 61.0225 18.5625 61.5154 18.771C62.0084 18.9796 62.5014 19.1787 62.9943 19.3683C63.7717 19.6527 64.4543 19.9561 65.0421 20.2784C65.6298 20.6007 66.0896 21.0178 66.4214 21.5298C66.7532 22.0417 66.9191 22.7243 66.9191 23.5775C66.9191 24.6013 66.6727 25.4783 66.1797 26.2082C65.6962 26.9382 65.0041 27.4975 64.1035 27.8862C63.2029 28.2654 62.1364 28.455 60.904 28.455ZM75.1487 28.455C73.9257 28.455 72.8355 28.2275 71.878 27.7725C70.93 27.3079 70.1574 26.6443 69.5601 25.7816L71.1243 23.4779C71.6837 24.2174 72.3046 24.791 72.9872 25.1986C73.6793 25.6063 74.395 25.8101 75.1345 25.8101C75.5895 25.8101 75.9924 25.7295 76.3432 25.5683C76.694 25.3977 76.9736 25.1559 77.1822 24.8431C77.3908 24.5208 77.495 24.1416 77.495 23.7055C77.495 23.2504 77.3765 22.8949 77.1395 22.6389C76.9025 22.383 76.547 22.1507 76.073 21.9422C75.599 21.7336 75.0017 21.4871 74.2813 21.2027C73.6745 20.9467 73.0962 20.6623 72.5464 20.3495C71.9965 20.0366 71.5415 19.6432 71.1812 19.1692C70.8305 18.6857 70.6551 18.0742 70.6551 17.3348C70.6551 16.491 70.8873 15.7421 71.3519 15.088C71.8259 14.4338 72.4705 13.9219 73.2858 13.5522C74.1106 13.1825 75.0491 12.9976 76.1015 12.9976C76.8599 12.9976 77.623 13.1351 78.3909 13.41C79.1588 13.6754 79.9267 14.0641 80.6946 14.576L79.4148 16.8086C78.3056 15.889 77.2106 15.4293 76.1299 15.4293C75.4947 15.4293 74.9828 15.5809 74.5941 15.8843C74.2149 16.1877 74.0253 16.5764 74.0253 17.0504C74.0253 17.4391 74.1912 17.7709 74.523 18.0458C74.8548 18.3207 75.2672 18.5625 75.7602 18.771C76.2531 18.9796 76.7461 19.1787 77.2391 19.3683C78.0164 19.6527 78.699 19.9561 79.2868 20.2784C79.8746 20.6007 80.3344 21.0178 80.6662 21.5298C80.998 22.0417 81.1639 22.7243 81.1639 23.5775C81.1639 24.6013 80.9174 25.4783 80.4244 26.2082C79.9409 26.9382 79.2489 27.4975 78.3483 27.8862C77.4476 28.2654 76.3811 28.455 75.1487 28.455Z" fill="white"/>
<path d="M8.8308 27.5307L8.48128 28.3092L8.48571 28.3112L8.8308 27.5307ZM5.16197 24.9426L4.54023 25.5272L4.54543 25.5326L5.16197 24.9426ZM2.71608 21.0605L1.92133 21.3713L1.92308 21.3757L2.71608 21.0605ZM2.65919 11.6609L3.45947 11.9571L3.46009 11.9554L2.65919 11.6609ZM5.00554 7.76452L4.37365 7.19104L5.00554 7.76452ZM8.71704 5.09111L8.36812 4.31237L8.36623 4.31322L8.71704 5.09111ZM16.8653 4.49385L17.067 3.6647V3.6647L16.8653 4.49385ZM19.8373 5.58882L19.4495 6.34894L19.4526 6.35052L19.8373 5.58882ZM22.3685 7.30947L23.0926 7.76109L23.4716 7.15348L22.9389 6.6748L22.3685 7.30947ZM20.5768 10.182L19.9734 10.7854L20.7326 11.5446L21.3008 10.6336L20.5768 10.182ZM17.4483 8.17691L17.1314 8.96923L17.1367 8.9713L17.4483 8.17691ZM10.3524 8.10581L10.7095 8.88082L10.7095 8.88082L10.3524 8.10581ZM7.89226 9.98289L7.23735 9.43584L7.23671 9.4366L7.89226 9.98289ZM6.37069 12.7558L5.56114 12.486L5.55969 12.4904L6.37069 12.7558ZM6.44179 19.7096L5.63801 19.9961L5.63881 19.9984L6.44179 19.7096ZM8.06291 22.5394L7.41549 23.0954L7.4226 23.1035L8.06291 22.5394ZM10.5088 24.388L10.1462 25.1605L10.1527 25.1635L10.5088 24.388ZM16.0405 24.6014L15.7594 23.7956L15.7594 23.7956L16.0405 24.6014ZM19.7662 21.4871L20.5235 21.8805H20.5235L19.7662 21.4871ZM20.335 18.5577H21.1884V17.7044H20.335V18.5577ZM13.2818 18.5577H12.4284V19.4111H13.2818V18.5577ZM13.2818 15.6426V14.7892H12.4284V15.6426H13.2818ZM24.1318 15.6426H24.9852V14.7892H24.1318V15.6426ZM23.2217 22.7527L23.9838 23.1367L23.2217 22.7527ZM20.7616 25.8385L21.3043 26.4971L21.3049 26.4965L20.7616 25.8385ZM17.3061 27.7867L17.5867 28.5926L17.592 28.5907L17.3061 27.7867ZM13.3529 27.6017C11.8429 27.6017 10.4539 27.3154 9.1759 26.7503L8.48571 28.3112C9.99484 28.9785 11.6206 29.3084 13.3529 29.3084V27.6017ZM9.18032 26.7523C7.88668 26.1714 6.75449 25.3726 5.77851 24.3527L4.54543 25.5326C5.67404 26.7121 6.98775 27.6386 8.48129 28.3092L9.18032 26.7523ZM5.78368 24.3581C4.81769 23.3307 4.05903 22.1291 3.50908 20.7453L1.92308 21.3757C2.54867 22.9497 3.4206 24.3362 4.54026 25.5271L5.78368 24.3581ZM3.51081 20.7497C2.97405 19.377 2.70197 17.8906 2.70197 16.2825H0.995305C0.995305 18.0873 1.30152 19.7861 1.92134 21.3713L3.51081 20.7497ZM2.70197 16.2825C2.70197 14.7582 2.95563 13.3183 3.45947 11.9571L1.85892 11.3647C1.28201 12.9233 0.995305 14.5645 0.995305 16.2825H2.70197ZM3.46009 11.9554C3.96366 10.5861 4.68938 9.38263 5.63744 8.33801L4.37365 7.19104C3.27399 8.4027 2.43547 9.79685 1.8583 11.3664L3.46009 11.9554ZM5.63744 8.33801C6.57913 7.30041 7.71927 6.47718 9.06785 5.86899L8.36623 4.31322C6.81387 5.0133 5.47968 5.97235 4.37365 7.19104L5.63744 8.33801ZM9.06596 5.86985C10.402 5.27123 11.9208 4.96324 13.6373 4.96324V3.25657C11.7133 3.25657 9.95198 3.60272 8.36812 4.31237L9.06596 5.86985ZM13.6373 4.96324C14.6701 4.96324 15.6783 5.08335 16.6636 5.32301L17.067 3.6647C15.9476 3.39242 14.8039 3.25657 13.6373 3.25657V4.96324ZM16.6636 5.32301C17.6538 5.56388 18.5818 5.90624 19.4495 6.34893L20.2251 4.8287C19.2347 4.32338 18.1813 3.93576 17.067 3.6647L16.6636 5.32301ZM19.4526 6.35052C20.3269 6.79207 21.1076 7.32359 21.7981 7.94415L22.9389 6.6748C22.1315 5.94917 21.2248 5.33358 20.222 4.82712L19.4526 6.35052ZM21.6445 6.85785L19.8527 9.73035L21.3008 10.6336L23.0926 7.76109L21.6445 6.85785ZM21.1802 9.57858C20.2361 8.63453 19.091 7.90471 17.7599 7.38252L17.1367 8.9713C18.2704 9.41609 19.211 10.023 19.9734 10.7854L21.1802 9.57858ZM17.7652 7.38461C16.435 6.85254 15.0668 6.58412 13.6657 6.58412V8.29079C14.8432 8.29079 15.9967 8.51534 17.1314 8.96921L17.7652 7.38461ZM13.6657 6.58412C12.3209 6.58412 11.0914 6.82573 9.99526 7.3308L10.7095 8.88082C11.5473 8.49475 12.5267 8.29079 13.6657 8.29079V6.58412ZM9.99526 7.33079C8.91501 7.82856 7.99274 8.53149 7.23735 9.43584L8.54718 10.5299C9.13797 9.82265 9.85578 9.2742 10.7095 8.88082L9.99526 7.33079ZM7.23671 9.4366C6.50033 10.3203 5.94319 11.3399 5.56115 12.486L7.18023 13.0257C7.49973 12.0672 7.95697 11.2382 8.54781 10.5292L7.23671 9.4366ZM5.55969 12.4904C5.18777 13.6268 5.00543 14.8406 5.00543 16.1261H6.71209C6.71209 15.0035 6.87104 13.9705 7.1817 13.0213L5.55969 12.4904ZM5.00543 16.1261C5.00543 17.5107 5.21279 18.8034 5.63801 19.9961L7.24557 19.423C6.89342 18.4353 6.71209 17.339 6.71209 16.1261H5.00543ZM5.63881 19.9984C6.0598 21.1689 6.65047 22.2045 7.41555 23.0954L8.71027 21.9834C8.09124 21.2627 7.60116 20.4117 7.24477 19.4208L5.63881 19.9984ZM7.4226 23.1035C8.19875 23.9845 9.10765 24.673 10.1462 25.1605L10.8714 23.6156C10.0518 23.2309 9.33013 22.687 8.70321 21.9753L7.4226 23.1035ZM10.1527 25.1635C11.1988 25.6439 12.3211 25.8813 13.5093 25.8813V24.1746C12.5549 24.1746 11.6769 23.9854 10.8649 23.6126L10.1527 25.1635ZM13.5093 25.8813C14.4762 25.8813 15.415 25.7233 16.3216 25.4071L15.7594 23.7956C15.0354 24.0482 14.2867 24.1746 13.5093 24.1746V25.8813ZM16.3216 25.4071C17.2287 25.0906 18.0478 24.6342 18.7729 24.0371L17.6879 22.7197C17.1237 23.1844 16.4829 23.5433 15.7594 23.7956L16.3216 25.4071ZM18.7729 24.0371C19.5049 23.4343 20.0904 22.7141 20.5235 21.8805L19.009 21.0937C18.6836 21.7201 18.2453 22.2607 17.6879 22.7197L18.7729 24.0371ZM20.5235 21.8805C20.9703 21.0203 21.1884 20.0782 21.1884 19.0697H19.4817C19.4817 19.8245 19.3205 20.4939 19.009 21.0937L20.5235 21.8805ZM21.1884 19.0697V18.5577H19.4817V19.0697H21.1884ZM20.335 17.7044H13.2818V19.4111H20.335V17.7044ZM14.1351 18.5577V15.6426H12.4284V18.5577H14.1351ZM13.2818 16.4959H24.1318V14.7892H13.2818V16.4959ZM23.2785 15.6426V18.6715H24.9852V15.6426H23.2785ZM23.2785 18.6715C23.2785 20.0718 22.9993 21.298 22.4597 22.3687L23.9838 23.1367C24.6577 21.7995 24.9852 20.3049 24.9852 18.6715H23.2785ZM22.4597 22.3687C21.9058 23.4679 21.16 24.403 20.2183 25.1805L21.3049 26.4965C22.4299 25.5676 23.3242 24.4455 23.9838 23.1367L22.4597 22.3687ZM20.2189 25.18C19.2734 25.9592 18.2089 26.56 17.0202 26.9827L17.592 28.5907C18.9629 28.1033 20.2021 27.4053 21.3043 26.4971L20.2189 25.18ZM17.0255 26.9808C15.8359 27.395 14.613 27.6017 13.3529 27.6017V29.3084C14.804 29.3084 16.2166 29.0696 17.5867 28.5926L17.0255 26.9808ZM28.4599 28H27.6066V28.8533H28.4599V28ZM28.4599 3.5411V2.68776H27.6066V3.5411H28.4599ZM32.0008 3.5411H32.8541V2.68776H32.0008V3.5411ZM32.0008 28V28.8533H32.8541V28H32.0008ZM29.3133 28V3.5411H27.6066V28H29.3133ZM28.4599 4.39443H32.0008V2.68776H28.4599V4.39443ZM31.1474 3.5411V28H32.8541V3.5411H31.1474ZM32.0008 27.1467H28.4599V28.8533H32.0008V27.1467ZM40.231 27.4738L39.838 28.2313L39.8403 28.2325L40.231 27.4738ZM37.2305 24.7436L36.5099 25.2005L37.2305 24.7436ZM37.2305 16.6949L37.9495 17.1545L37.9512 17.1519L37.2305 16.6949ZM40.231 13.9646L39.838 13.2071L40.231 13.9646ZM48.7489 13.9646L48.356 14.722L48.3583 14.7232L48.7489 13.9646ZM51.7494 16.6949L51.0261 17.1477L51.0305 17.1545L51.7494 16.6949ZM51.7494 24.7436L51.0288 24.2865L51.0261 24.2908L51.7494 24.7436ZM48.7489 27.4738L48.3583 26.7152L48.356 26.7164L48.7489 27.4738ZM46.8861 24.8147L47.3073 25.5568L47.3105 25.5549L46.8861 24.8147ZM48.5641 23.1509L49.3019 23.5796L49.3044 23.5753L48.5641 23.1509ZM48.5641 18.2875L47.8238 18.712L47.8263 18.7163L48.5641 18.2875ZM46.8861 16.6238L46.4649 17.3659L46.4691 17.3683L46.8861 16.6238ZM42.1081 16.6238L42.525 17.3683L42.1081 16.6238ZM40.4301 18.2875L41.1679 18.7163L41.1704 18.712L40.4301 18.2875ZM40.4301 23.1509L39.6898 23.5753L39.6923 23.5796L40.4301 23.1509ZM42.1081 24.8147L41.6836 25.555L41.6911 25.5592L42.1081 24.8147ZM44.4971 27.6017C43.0452 27.6017 41.7593 27.301 40.6216 26.7152L39.8403 28.2325C41.2434 28.955 42.8015 29.3084 44.4971 29.3084V27.6017ZM40.624 26.7164C39.4929 26.1296 38.6075 25.3215 37.9512 24.2866L36.5099 25.2005C37.3325 26.4977 38.4473 27.5098 39.838 28.2313L40.624 26.7164ZM37.9512 24.2866C37.3068 23.2705 36.9747 22.0907 36.9747 20.7192H35.268C35.268 22.3813 35.6753 23.8845 36.5099 25.2005L37.9512 24.2866ZM36.9747 20.7192C36.9747 19.337 37.3074 18.1588 37.9495 17.1545L36.5116 16.2352C35.6747 17.5441 35.268 19.0488 35.268 20.7192H36.9747ZM37.9512 17.1519C38.6075 16.1169 39.4929 15.3088 40.624 14.722L39.838 13.2071C38.4473 13.9286 37.3325 14.9407 36.5099 16.2379L37.9512 17.1519ZM40.624 14.722C41.75 14.1378 43.0348 13.8367 44.4971 13.8367V12.13C42.793 12.13 41.2337 12.483 39.838 13.2071L40.624 14.722ZM44.4971 13.8367C45.949 13.8367 47.2292 14.1375 48.356 14.722L49.1419 13.2071C47.747 12.4834 46.1926 12.13 44.4971 12.13V13.8367ZM48.3583 14.7232C49.4978 15.31 50.3808 16.1167 51.0261 17.1477L52.4727 16.2421C51.6581 14.9409 50.5408 13.9274 49.1396 13.2059L48.3583 14.7232ZM51.0305 17.1545C51.6726 18.1588 52.0053 19.337 52.0053 20.7192H53.7119C53.7119 19.0488 53.3052 17.5441 52.4684 16.2352L51.0305 17.1545ZM52.0053 20.7192C52.0053 22.0907 51.6731 23.2705 51.0288 24.2866L52.4701 25.2005C53.3046 23.8845 53.7119 22.3813 53.7119 20.7192H52.0053ZM51.0261 24.2908C50.3808 25.3217 49.4978 26.1284 48.3583 26.7152L49.1396 28.2325C50.5408 27.511 51.6581 26.4976 52.4727 25.1963L51.0261 24.2908ZM48.356 26.7164C47.2292 27.301 45.949 27.6017 44.4971 27.6017V29.3084C46.1926 29.3084 47.747 28.955 49.1419 28.2313L48.356 26.7164ZM44.4971 26.2652C45.52 26.2652 46.4642 26.0353 47.3073 25.5568L46.4649 24.0725C45.9049 24.3904 45.2564 24.5586 44.4971 24.5586V26.2652ZM47.3105 25.5549C48.1502 25.0736 48.8182 24.4121 49.3019 23.5796L47.8263 22.7222C47.4947 23.2927 47.044 23.7405 46.4617 24.0744L47.3105 25.5549ZM49.3044 23.5753C49.794 22.7212 50.0289 21.7614 50.0289 20.7192H48.3222C48.3222 21.4972 48.1494 22.1585 47.8238 22.7264L49.3044 23.5753ZM50.0289 20.7192C50.0289 19.6695 49.7949 18.7072 49.3019 17.8588L47.8263 18.7163C48.1486 19.271 48.3222 19.9298 48.3222 20.7192H50.0289ZM49.3044 17.8631C48.8204 17.0189 48.1496 16.3533 47.303 15.8792L46.4691 17.3683C47.0446 17.6905 47.4925 18.1341 47.8238 18.712L49.3044 17.8631ZM47.3073 15.8816C46.4642 15.4031 45.52 15.1732 44.4971 15.1732V16.8798C45.2564 16.8798 45.9049 17.0481 46.4649 17.3659L47.3073 15.8816ZM44.4971 15.1732C43.4817 15.1732 42.5398 15.4039 41.6911 15.8792L42.525 17.3683C43.0983 17.0473 43.7491 16.8798 44.4971 16.8798V15.1732ZM41.6911 15.8792C40.8445 16.3533 40.1738 17.0189 39.6898 17.8631L41.1704 18.712C41.5017 18.1341 41.9496 17.6905 42.525 17.3683L41.6911 15.8792ZM39.6923 17.8588C39.1993 18.7072 38.9653 19.6695 38.9653 20.7192H40.6719C40.6719 19.9298 40.8456 19.271 41.1679 18.7163L39.6923 17.8588ZM38.9653 20.7192C38.9653 21.7614 39.2001 22.7212 39.6898 23.5753L41.1704 22.7264C40.8447 22.1585 40.6719 21.4972 40.6719 20.7192H38.9653ZM39.6923 23.5796C40.176 24.4121 40.844 25.0736 41.6836 25.5549L42.5325 24.0744C41.9501 23.7405 41.4994 23.2927 41.1679 22.7222L39.6923 23.5796ZM41.6911 25.5592C42.5398 26.0345 43.4817 26.2652 44.4971 26.2652V24.5586C43.7491 24.5586 43.0983 24.3912 42.525 24.0701L41.6911 25.5592ZM57.6333 27.7725L57.2578 28.5388L57.267 28.5432L57.6333 27.7725ZM55.3154 25.7816L54.6094 25.3023L54.2807 25.7863L54.6138 26.2674L55.3154 25.7816ZM56.8796 23.4779L57.5602 22.9632L56.8422 22.014L56.1736 22.9986L56.8796 23.4779ZM58.7425 25.1986L58.3049 25.9312L58.3094 25.9339L58.7425 25.1986ZM62.0985 25.5683L62.4547 26.3437L62.4633 26.3398L62.4718 26.3357L62.0985 25.5683ZM62.9375 24.8431L63.6475 25.3165L63.6539 25.3067L62.9375 24.8431ZM62.8948 22.639L62.2687 23.2187V23.2187L62.8948 22.639ZM61.8283 21.9422L62.1719 21.1611L61.8283 21.9422ZM60.0365 21.2027L59.7048 21.9889L59.714 21.9928L59.7232 21.9964L60.0365 21.2027ZM58.3016 20.3495L58.7236 19.6078H58.7236L58.3016 20.3495ZM56.9365 19.1692L56.2458 19.6703L56.2514 19.678L56.2571 19.6855L56.9365 19.1692ZM57.1071 15.088L56.4161 14.5872L56.4114 14.5939L57.1071 15.088ZM59.0411 13.5522L58.692 12.7735L58.6887 12.775L59.0411 13.5522ZM64.1462 13.41L63.8585 14.2134L63.8674 14.2165L64.1462 13.41ZM66.4499 14.576L67.1902 15.0004L67.5869 14.3085L66.9232 13.866L66.4499 14.576ZM65.17 16.8086L64.6254 17.4656L65.4061 18.1128L65.9104 17.233L65.17 16.8086ZM60.3494 15.8843L59.8243 15.2116L59.8163 15.218L60.3494 15.8843ZM60.2783 18.0458L60.8227 17.3887V17.3887L60.2783 18.0458ZM61.5154 18.771L61.8479 17.9851V17.9851L61.5154 18.771ZM62.9943 19.3683L62.688 20.1648L62.7012 20.1697L62.9943 19.3683ZM65.0421 20.2784L65.4524 19.5302L65.0421 20.2784ZM66.4214 21.5298L65.7054 21.9939L66.4214 21.5298ZM66.1797 26.2082L65.4725 25.7306L65.4683 25.737L66.1797 26.2082ZM64.1035 27.8862L64.4347 28.6727L64.4417 28.6697L64.1035 27.8862ZM60.904 27.6017C59.7883 27.6017 58.8263 27.3946 57.9996 27.0018L57.267 28.5432C58.3553 29.0604 59.5737 29.3084 60.904 29.3084V27.6017ZM58.0088 27.0062C57.1908 26.6054 56.5307 26.038 56.017 25.2959L54.6138 26.2674C55.2945 27.2507 56.1798 28.0105 57.2578 28.5388L58.0088 27.0062ZM56.0214 26.261L57.5856 23.9573L56.1736 22.9986L54.6094 25.3023L56.0214 26.261ZM56.199 23.9927C56.8138 24.8054 57.5138 25.4587 58.3049 25.9312L59.18 24.466C58.606 24.1232 58.0641 23.6294 57.5602 22.9632L56.199 23.9927ZM58.3094 25.9339C59.121 26.4119 59.985 26.6634 60.8897 26.6634V24.9567C60.3156 24.9567 59.7481 24.8006 59.1756 24.4633L58.3094 25.9339ZM60.8897 26.6634C61.446 26.6634 61.974 26.5646 62.4547 26.3437L61.7422 24.7929C61.5214 24.8944 61.2436 24.9567 60.8897 24.9567V26.6634ZM62.4718 26.3357C62.9536 26.1013 63.3516 25.7603 63.6475 25.3164L62.2274 24.3698C62.1062 24.5516 61.9449 24.6941 61.7252 24.801L62.4718 26.3357ZM63.6539 25.3067C63.9635 24.8281 64.1036 24.2831 64.1036 23.7055H62.397C62.397 24.0001 62.3285 24.2134 62.221 24.3795L63.6539 25.3067ZM64.1036 23.7055C64.1036 23.1028 63.9441 22.5162 63.5209 22.0592L62.2687 23.2187C62.3195 23.2736 62.397 23.398 62.397 23.7055H64.1036ZM63.5209 22.0592C63.1757 21.6864 62.7057 21.3959 62.1719 21.1611L61.4846 22.7232C61.8989 22.9055 62.1399 23.0796 62.2687 23.2187L63.5209 22.0592ZM62.1719 21.1611C61.6843 20.9465 61.0761 20.6956 60.3498 20.409L59.7232 21.9964C60.438 22.2786 61.0242 22.5207 61.4846 22.7232L62.1719 21.1611ZM60.3682 20.4165C59.7912 20.173 59.2431 19.9034 58.7236 19.6078L57.8797 21.0912C58.4599 21.4213 59.0684 21.7204 59.7048 21.9889L60.3682 20.4165ZM58.7236 19.6078C58.2676 19.3483 57.9021 19.0295 57.6159 18.6529L56.2571 19.6855C56.6914 20.2569 57.236 20.725 57.8797 21.0912L58.7236 19.6078ZM57.6272 18.6681C57.4051 18.3619 57.2637 17.9377 57.2637 17.3348H55.557C55.557 18.2108 55.7664 19.0095 56.2458 19.6703L57.6272 18.6681ZM57.2637 17.3348C57.2637 16.6584 57.4464 16.0841 57.8029 15.5821L56.4114 14.5939C55.8389 15.4001 55.557 16.3237 55.557 17.3348H57.2637ZM57.7981 15.5887C58.176 15.0672 58.6982 14.6446 59.3935 14.3293L58.6887 12.775C57.7534 13.1992 56.9863 13.8005 56.4162 14.5873L57.7981 15.5887ZM59.3902 14.3309C60.0886 14.0178 60.9051 13.8509 61.8567 13.8509V12.1443C60.7037 12.1443 59.6432 12.3471 58.692 12.7735L59.3902 14.3309ZM61.8567 13.8509C62.5099 13.8509 63.176 13.969 63.8585 14.2134L64.4338 12.6066C63.5806 12.3011 62.7203 12.1443 61.8567 12.1443V13.8509ZM63.8674 14.2165C64.558 14.4552 65.2611 14.8091 65.9765 15.2861L66.9232 13.866C66.1029 13.3191 65.2701 12.8956 64.425 12.6035L63.8674 14.2165ZM65.7096 14.1517L64.4297 16.3842L65.9104 17.233L67.1902 15.0004L65.7096 14.1517ZM65.7147 16.1517C64.5037 15.1477 63.2225 14.5759 61.8852 14.5759V16.2826C62.7093 16.2826 63.618 16.6304 64.6254 17.4656L65.7147 16.1517ZM61.8852 14.5759C61.1151 14.5759 60.4015 14.7612 59.8243 15.2116L60.8744 16.557C61.0746 16.4007 61.3849 16.2826 61.8852 16.2826V14.5759ZM59.8163 15.218C59.2404 15.6787 58.9272 16.3098 58.9272 17.0504H60.6339C60.6339 16.8429 60.6999 16.6967 60.8824 16.5507L59.8163 15.218ZM58.9272 17.0504C58.9272 17.7228 59.2304 18.2858 59.7338 18.7029L60.8227 17.3887C60.6625 17.256 60.6339 17.1553 60.6339 17.0504H58.9272ZM59.7338 18.7029C60.1429 19.0418 60.6311 19.3235 61.1829 19.5569L61.8479 17.9851C61.4138 17.8015 61.0772 17.5996 60.8227 17.3887L59.7338 18.7029ZM61.1829 19.5569C61.6845 19.7691 62.1861 19.9717 62.688 20.1647L63.3007 18.5718C62.8166 18.3856 62.3323 18.1901 61.8479 17.9851L61.1829 19.5569ZM62.7012 20.1697C63.4472 20.4426 64.0892 20.729 64.6318 21.0266L65.4524 19.5302C64.8194 19.1831 64.0963 18.8628 63.2875 18.5669L62.7012 20.1697ZM64.6318 21.0266C65.1082 21.2879 65.4578 21.6119 65.7054 21.9939L67.1375 21.0656C66.7215 20.4237 66.1515 19.9136 65.4524 19.5302L64.6318 21.0266ZM65.7054 21.9939C65.9185 22.3228 66.0658 22.8259 66.0658 23.5775H67.7725C67.7725 22.6226 67.588 21.7606 67.1375 21.0656L65.7054 21.9939ZM66.0658 23.5775C66.0658 24.4595 65.8555 25.1635 65.4725 25.7307L66.8869 26.6858C67.4898 25.793 67.7725 24.7432 67.7725 23.5775H66.0658ZM65.4683 25.737C65.087 26.3127 64.5328 26.7715 63.7654 27.1028L64.4417 28.6697C65.4755 28.2235 66.3054 27.5638 66.8911 26.6795L65.4683 25.737ZM63.7724 27.0998C63.0001 27.425 62.0513 27.6017 60.904 27.6017V29.3084C62.2215 29.3084 63.4057 29.1059 64.4347 28.6727L63.7724 27.0998ZM71.878 27.7725L71.5025 28.5388L71.5117 28.5432L71.878 27.7725ZM69.5601 25.7816L68.8541 25.3023L68.5255 25.7863L68.8585 26.2674L69.5601 25.7816ZM71.1243 23.4779L71.8049 22.9632L71.0869 22.014L70.4184 22.9986L71.1243 23.4779ZM72.9872 25.1986L72.5497 25.9312L72.5541 25.9339L72.9872 25.1986ZM76.3432 25.5683L76.6995 26.3437L76.708 26.3398L76.7165 26.3357L76.3432 25.5683ZM77.1822 24.8431L77.8923 25.3165L77.8986 25.3067L77.1822 24.8431ZM77.1395 22.639L76.5134 23.2187V23.2187L77.1395 22.639ZM76.073 21.9422L76.4167 21.1611L76.073 21.9422ZM74.2812 21.2027L73.9496 21.9889L73.9587 21.9928L73.9679 21.9964L74.2812 21.2027ZM72.5464 20.3495L72.9684 19.6078L72.5464 20.3495ZM71.1812 19.1692L70.4905 19.6703L70.4961 19.678L70.5018 19.6855L71.1812 19.1692ZM71.3519 15.088L70.6609 14.5872L70.6561 14.5939L71.3519 15.088ZM73.2858 13.5522L72.9368 12.7735L72.9334 12.775L73.2858 13.5522ZM78.3909 13.41L78.1033 14.2134L78.1121 14.2165L78.3909 13.41ZM80.6946 14.576L81.4349 15.0004L81.8316 14.3085L81.1679 13.866L80.6946 14.576ZM79.4148 16.8086L78.8701 17.4656L79.6508 18.1128L80.1551 17.233L79.4148 16.8086ZM74.5941 15.8843L74.069 15.2116L74.061 15.218L74.5941 15.8843ZM74.523 18.0458L75.0674 17.3887V17.3887L74.523 18.0458ZM75.7602 18.771L76.0927 17.9851L76.0927 17.9851L75.7602 18.771ZM77.2391 19.3683L76.9327 20.1648L76.9459 20.1697L77.2391 19.3683ZM79.2868 20.2784L79.6971 19.5302L79.2868 20.2784ZM80.6662 21.5298L79.9501 21.9939L80.6662 21.5298ZM80.4244 26.2082L79.7172 25.7306L79.713 25.737L80.4244 26.2082ZM78.3483 27.8862L78.6794 28.6727L78.6864 28.6697L78.3483 27.8862ZM75.1487 27.6017C74.033 27.6017 73.071 27.3946 72.2443 27.0018L71.5117 28.5432C72.6 29.0604 73.8185 29.3084 75.1487 29.3084V27.6017ZM72.2535 27.0062C71.4355 26.6054 70.7755 26.038 70.2617 25.2959L68.8585 26.2674C69.5393 27.2507 70.4245 28.0105 71.5025 28.5388L72.2535 27.0062ZM70.2661 26.261L71.8303 23.9573L70.4184 22.9986L68.8541 25.3023L70.2661 26.261ZM70.4438 23.9927C71.0585 24.8054 71.7585 25.4587 72.5497 25.9312L73.4247 24.466C72.8507 24.1232 72.3089 23.6294 71.8049 22.9632L70.4438 23.9927ZM72.5541 25.9339C73.3657 26.4119 74.2297 26.6634 75.1345 26.6634V24.9567C74.5603 24.9567 73.9928 24.8006 73.4203 24.4633L72.5541 25.9339ZM75.1345 26.6634C75.6907 26.6634 76.2187 26.5646 76.6995 26.3437L75.9869 24.7929C75.7661 24.8944 75.4883 24.9567 75.1345 24.9567V26.6634ZM76.7165 26.3357C77.1983 26.1013 77.5963 25.7603 77.8922 25.3164L76.4722 24.3698C76.351 24.5516 76.1896 24.6941 75.9699 24.801L76.7165 26.3357ZM77.8986 25.3067C78.2083 24.8281 78.3484 24.2831 78.3484 23.7055H76.6417C76.6417 24.0001 76.5732 24.2134 76.4658 24.3795L77.8986 25.3067ZM78.3484 23.7055C78.3484 23.1028 78.1888 22.5162 77.7657 22.0592L76.5134 23.2187C76.5642 23.2736 76.6417 23.398 76.6417 23.7055H78.3484ZM77.7657 22.0592C77.4205 21.6864 76.9504 21.3959 76.4167 21.1611L75.7293 22.7232C76.1436 22.9055 76.3846 23.0796 76.5134 23.2187L77.7657 22.0592ZM76.4167 21.1611C75.929 20.9465 75.3208 20.6956 74.5946 20.409L73.9679 21.9964C74.6827 22.2786 75.269 22.5207 75.7293 22.7232L76.4167 21.1611ZM74.6129 20.4165C74.0359 20.173 73.4879 19.9034 72.9684 19.6078L72.1244 21.0912C72.7046 21.4213 73.3131 21.7204 73.9496 21.9889L74.6129 20.4165ZM72.9684 19.6078C72.5123 19.3483 72.1469 19.0295 71.8606 18.6529L70.5018 19.6855C70.9361 20.2569 71.4808 20.725 72.1244 21.0912L72.9684 19.6078ZM71.8719 18.6681C71.6498 18.3619 71.5084 17.9377 71.5084 17.3348H69.8017C69.8017 18.2108 70.0111 19.0095 70.4905 19.6703L71.8719 18.6681ZM71.5084 17.3348C71.5084 16.6584 71.6911 16.0841 72.0476 15.5821L70.6561 14.5939C70.0836 15.4001 69.8017 16.3237 69.8017 17.3348H71.5084ZM72.0429 15.5887C72.4208 15.0672 72.943 14.6446 73.6383 14.3293L72.9334 12.775C71.9981 13.1992 71.231 13.8005 70.6609 14.5873L72.0429 15.5887ZM73.6349 14.3309C74.3333 14.0178 75.1499 13.8509 76.1014 13.8509V12.1443C74.9484 12.1443 73.8879 12.3471 72.9368 12.7735L73.6349 14.3309ZM76.1014 13.8509C76.7547 13.8509 77.4207 13.969 78.1033 14.2134L78.6786 12.6066C77.8253 12.3011 76.9651 12.1443 76.1014 12.1443V13.8509ZM78.1121 14.2165C78.8028 14.4552 79.5058 14.8091 80.2213 15.2861L81.1679 13.866C80.3476 13.3191 79.5149 12.8956 78.6697 12.6035L78.1121 14.2165ZM79.9543 14.1517L78.6745 16.3842L80.1551 17.233L81.4349 15.0004L79.9543 14.1517ZM79.9594 16.1517C78.7484 15.1477 77.4673 14.5759 76.1299 14.5759V16.2826C76.954 16.2826 77.8628 16.6304 78.8701 17.4656L79.9594 16.1517ZM76.1299 14.5759C75.3598 14.5759 74.6462 14.7612 74.0691 15.2116L75.1191 16.557C75.3194 16.4007 75.6296 16.2826 76.1299 16.2826V14.5759ZM74.061 15.218C73.4852 15.6787 73.172 16.3098 73.172 17.0504H74.8786C74.8786 16.8429 74.9446 16.6967 75.1272 16.5507L74.061 15.218ZM73.172 17.0504C73.172 17.7228 73.4751 18.2858 73.9786 18.7029L75.0674 17.3887C74.9072 17.256 74.8786 17.1553 74.8786 17.0504H73.172ZM73.9786 18.7029C74.3876 19.0418 74.8759 19.3235 75.4277 19.5569L76.0927 17.9851C75.6585 17.8015 75.322 17.5996 75.0674 17.3887L73.9786 18.7029ZM75.4277 19.5569C75.9292 19.7691 76.4309 19.9717 76.9327 20.1647L77.5454 18.5718C77.0613 18.3856 76.5771 18.1901 76.0927 17.9851L75.4277 19.5569ZM76.9459 20.1697C77.6919 20.4426 78.3339 20.729 78.8765 21.0266L79.6971 19.5302C79.0642 19.1831 78.341 18.8628 77.5323 18.5669L76.9459 20.1697ZM78.8765 21.0266C79.3529 21.2879 79.7025 21.6119 79.9501 21.9939L81.3822 21.0656C80.9662 20.4237 80.3962 19.9136 79.6971 19.5302L78.8765 21.0266ZM79.9501 21.9939C80.1633 22.3228 80.3105 22.8259 80.3105 23.5775H82.0172C82.0172 22.6226 81.8327 21.7606 81.3822 21.0656L79.9501 21.9939ZM80.3105 23.5775C80.3105 24.4595 80.1002 25.1635 79.7172 25.7307L81.1316 26.6858C81.7346 25.793 82.0172 24.7432 82.0172 23.5775H80.3105ZM79.713 25.737C79.3317 26.3127 78.7775 26.7715 78.0101 27.1028L78.6864 28.6697C79.7202 28.2235 80.5501 27.5638 81.1359 26.6795L79.713 25.737ZM78.0171 27.0998C77.2448 27.425 76.296 27.6017 75.1487 27.6017V29.3084C76.4662 29.3084 77.6505 29.1059 78.6794 28.6727L78.0171 27.0998ZM95.5835 27.6872L95.2204 28.4595L95.2284 28.4631L95.5835 27.6872ZM92.9527 25.483L92.2416 25.9548L92.2471 25.9628L92.9527 25.483ZM93.4078 18.0742L92.75 17.5306L92.7473 17.5339L93.4078 18.0742ZM97.6596 15.1306L97.9982 15.9139L99.0815 15.4458L98.2974 14.5637L97.6596 15.1306ZM96.0243 13.0829L95.316 13.5588L95.3195 13.564L96.0243 13.0829ZM95.1427 11.3623L94.3277 11.6152L94.3303 11.6237L94.3331 11.6321L95.1427 11.3623ZM95.7399 6.68378L95.0386 6.19763L95.0349 6.20307L95.7399 6.68378ZM98.0578 4.76404L97.7036 3.98771L97.7007 3.98903L98.0578 4.76404ZM104.045 4.56496L103.729 5.358L103.741 5.36238L104.045 4.56496ZM106.035 5.83056L105.427 6.4286L105.432 6.43398L105.437 6.43928L106.035 5.83056ZM107.258 7.63654L106.468 7.95921L106.47 7.96315L107.258 7.63654ZM106.448 12.9549L107.092 13.5146L107.095 13.5113L106.448 12.9549ZM102.893 15.5715L102.5 14.8138L101.501 15.3314L102.269 16.1537L102.893 15.5715ZM107.671 20.6908L107.047 21.273L107.599 21.8651L108.22 21.3442L107.671 20.6908ZM108.453 19.9371L107.84 19.3433L107.83 19.3535L108.453 19.9371ZM109.335 18.9986L108.705 18.4228L108.704 18.4236L109.335 18.9986ZM110.159 18.06L109.507 17.5097L109.505 17.5117L110.159 18.06ZM110.771 17.3348L111.351 16.7088L110.694 16.1008L110.118 16.7851L110.771 17.3348ZM113.089 19.482L113.76 20.0088L114.245 19.3903L113.669 18.856L113.089 19.482ZM111.524 21.4018L112.173 21.9564L112.177 21.9517L111.524 21.4018ZM110.003 23.0656L109.399 22.4622L108.815 23.0461L109.38 23.6489L110.003 23.0656ZM114.624 28V28.8533H116.593L115.247 27.4167L114.624 28ZM109.96 28L109.336 28.5816L109.589 28.8533H109.96V28ZM107.258 25.0991L107.883 24.5175L107.296 23.887L106.671 24.4803L107.258 25.0991ZM103.575 27.5876L103.918 28.369L103.921 28.3679L103.575 27.5876ZM102.423 24.3312L102.788 25.1029L102.791 25.1011L102.423 24.3312ZM104.841 22.5821L105.444 23.1855L106.037 22.5932L105.455 21.99L104.841 22.5821ZM99.5936 17.1357L100.208 16.5436L99.8001 16.1201L99.2591 16.3507L99.5936 17.1357ZM96.6358 23.3926L95.9236 23.8629L95.9299 23.8721L96.6358 23.3926ZM98.0009 24.5445L97.64 25.3178L97.6508 25.3226L98.0009 24.5445ZM100.973 13.5095L100.38 14.1231L100.824 14.552L101.37 14.2649L100.973 13.5095ZM102.85 12.3577L102.348 11.6675L102.342 11.672L102.85 12.3577ZM104.016 11.1347L103.287 10.691L103.28 10.7028L104.016 11.1347ZM104.016 8.14847L103.28 8.58048L103.287 8.59216L104.016 8.14847ZM102.964 7.13883L102.544 7.88171L102.553 7.88708L102.563 7.89221L102.964 7.13883ZM100.006 7.13883L100.42 7.88478L100.427 7.88129L100.433 7.8777L100.006 7.13883ZM98.9964 8.13425L99.7352 8.56115L98.9964 8.13425ZM98.8541 10.7934L98.0592 11.1037L98.0625 11.112L98.0659 11.1203L98.8541 10.7934ZM99.6078 12.0306L100.28 11.5047L99.6078 12.0306ZM99.3945 27.6017C98.076 27.6017 96.9297 27.3648 95.9386 26.9112L95.2284 28.4631C96.4746 29.0334 97.869 29.3084 99.3945 29.3084V27.6017ZM95.9465 26.9149C94.9657 26.4538 94.2111 25.816 93.6584 25.0032L92.2471 25.9628C92.9837 27.046 93.9828 27.8776 95.2205 28.4594L95.9465 26.9149ZM93.6638 25.0113C93.1332 24.2113 92.8533 23.2522 92.8533 22.0986H91.1466C91.1466 23.5426 91.5019 24.8397 92.2416 25.9547L93.6638 25.0113ZM92.8533 22.0986C92.8533 20.752 93.2592 19.6034 94.0682 18.6146L92.7473 17.5339C91.6792 18.8393 91.1466 20.3735 91.1466 22.0986H92.8533ZM94.0655 18.6178C94.9012 17.6067 96.1908 16.695 97.9982 15.9139L97.3211 14.3473C95.3553 15.1969 93.8104 16.2476 92.75 17.5306L94.0655 18.6178ZM98.2974 14.5637C97.6299 13.8127 97.1098 13.1595 96.7291 12.6019L95.3195 13.564C95.7542 14.2008 96.3243 14.9128 97.0219 15.6976L98.2974 14.5637ZM96.7326 12.607C96.3564 12.047 96.1023 11.5426 95.9522 11.0924L94.3331 11.6321C94.5433 12.2626 94.8769 12.9053 95.316 13.5588L96.7326 12.607ZM95.9576 11.1093C95.8121 10.6404 95.74 10.1663 95.74 9.68426H94.0334C94.0334 10.3399 94.1319 10.9844 94.3277 11.6152L95.9576 11.1093ZM95.74 9.68426C95.74 8.66236 95.9871 7.83604 96.445 7.16449L95.0349 6.20307C94.3551 7.20004 94.0334 8.37403 94.0334 9.68426H95.74ZM96.4412 7.16992C96.9283 6.46721 97.5794 5.92406 98.4149 5.53905L97.7007 3.98903C96.6023 4.49515 95.7081 5.23183 95.0386 6.19764L96.4412 7.16992ZM98.4121 5.54037C99.2653 5.15101 100.228 4.94902 101.314 4.94902V3.24235C100.011 3.24235 98.8032 3.48593 97.7036 3.98771L98.4121 5.54037ZM101.314 4.94902C102.263 4.94902 103.062 5.09268 103.729 5.35791L104.36 3.772C103.453 3.41153 102.432 3.24235 101.314 3.24235V4.94902ZM103.741 5.36238C104.437 5.6275 104.992 5.98623 105.427 6.4286L106.644 5.23253C106.017 4.59416 105.245 4.10915 104.348 3.76753L103.741 5.36238ZM105.437 6.43928C105.899 6.89233 106.239 7.39802 106.468 7.95921L108.048 7.31387C107.728 6.52887 107.253 5.83057 106.633 5.22185L105.437 6.43928ZM106.47 7.96315C106.702 8.5243 106.817 9.10072 106.817 9.69848H108.524C108.524 8.87421 108.364 8.076 108.047 7.30993L106.47 7.96315ZM106.817 9.69848C106.817 10.7123 106.486 11.6015 105.801 12.3985L107.095 13.5113C108.04 12.4123 108.524 11.1306 108.524 9.69848H106.817ZM105.804 12.3953C105.081 13.2267 103.995 14.0388 102.5 14.8138L103.285 16.3291C104.9 15.4924 106.184 14.5603 107.092 13.5145L105.804 12.3953ZM102.269 16.1537L107.047 21.273L108.295 20.1085L103.517 14.9892L102.269 16.1537ZM108.22 21.3442C108.49 21.1174 108.775 20.841 109.075 20.5207L107.83 19.3535C107.562 19.6399 107.326 19.866 107.122 20.0374L108.22 21.3442ZM109.066 20.5308C109.366 20.2211 109.666 19.902 109.965 19.5735L108.704 18.4236C108.416 18.7398 108.128 19.0464 107.84 19.3433L109.066 20.5308ZM109.964 19.5744C110.275 19.2351 110.558 18.913 110.813 18.6084L109.505 17.5117C109.268 17.7948 109.001 18.0984 108.705 18.4228L109.964 19.5744ZM110.811 18.6103C111.068 18.3069 111.272 18.0649 111.423 17.8844L110.118 16.7851C109.967 16.9649 109.763 17.2064 109.507 17.5097L110.811 18.6103ZM110.191 17.9608L112.509 20.108L113.669 18.856L111.351 16.7088L110.191 17.9608ZM112.417 18.9553C111.941 19.5629 111.426 20.195 110.872 20.8518L112.177 21.9517C112.742 21.2813 113.27 20.6336 113.76 20.0088L112.417 18.9553ZM110.876 20.8472C110.326 21.4897 109.835 22.027 109.399 22.4622L110.606 23.669C111.081 23.194 111.604 22.6221 112.173 21.9564L110.876 20.8472ZM109.38 23.6489L114.002 28.5833L115.247 27.4167L110.626 22.4822L109.38 23.6489ZM114.624 27.1467H109.96V28.8533H114.624V27.1467ZM110.585 27.4184L107.883 24.5175L106.634 25.6807L109.336 28.5816L110.585 27.4184ZM106.671 24.4803C105.608 25.4891 104.461 26.2619 103.23 26.8074L103.921 28.3679C105.344 27.7378 106.652 26.8515 107.846 25.7179L106.671 24.4803ZM103.232 26.8062C102.025 27.336 100.748 27.6017 99.3945 27.6017V29.3084C100.979 29.3084 102.49 28.9958 103.918 28.369L103.232 26.8062ZM99.878 25.7817C100.869 25.7817 101.841 25.5497 102.788 25.1029L102.059 23.5594C101.319 23.909 100.594 24.0751 99.878 24.0751V25.7817ZM102.791 25.1011C103.743 24.6465 104.626 24.0033 105.444 23.1855L104.237 21.9787C103.538 22.6777 102.811 23.2005 102.056 23.5612L102.791 25.1011ZM105.455 21.99L100.208 16.5436L98.9791 17.7278L104.226 23.1741L105.455 21.99ZM99.2591 16.3507C98.0627 16.8604 97.0874 17.5613 96.3755 18.4735L97.7209 19.5236C98.2224 18.881 98.9441 18.34 99.9281 17.9207L99.2591 16.3507ZM96.3755 18.4735C95.6581 19.3927 95.2847 20.4335 95.2847 21.5724H96.9914C96.9914 20.8342 97.2248 20.1591 97.7209 19.5236L96.3755 18.4735ZM95.2847 21.5724C95.2847 22.4198 95.4841 23.1972 95.9237 23.8629L97.3479 22.9224C97.1238 22.5831 96.9914 22.1471 96.9914 21.5724H95.2847ZM95.9299 23.8721C96.3606 24.5062 96.9368 24.9895 97.6401 25.3177L98.3618 23.7712C97.9275 23.5685 97.5936 23.284 97.3417 22.9132L95.9299 23.8721ZM97.6508 25.3226C98.3397 25.6327 99.0862 25.7817 99.878 25.7817V24.0751C99.3047 24.0751 98.7998 23.9682 98.3511 23.7663L97.6508 25.3226ZM101.37 14.2649C102.137 13.8617 102.802 13.4552 103.358 13.0434L102.342 11.672C101.874 12.0186 101.288 12.38 100.576 12.7542L101.37 14.2649ZM103.352 13.0478C103.943 12.6178 104.423 12.1277 104.752 11.5667L103.28 10.7028C103.098 11.0139 102.8 11.3391 102.348 11.6676L103.352 13.0478ZM104.745 11.5784C105.098 10.9983 105.268 10.3497 105.268 9.65582H103.561C103.561 10.0617 103.465 10.3989 103.287 10.691L104.745 11.5784ZM105.268 9.65582C105.268 8.94888 105.101 8.28943 104.745 7.70478L103.287 8.59216C103.462 8.87969 103.561 9.22514 103.561 9.65582H105.268ZM104.752 7.71651C104.416 7.14463 103.95 6.6967 103.365 6.38544L102.563 7.89221C102.869 8.05497 103.104 8.28013 103.28 8.58043L104.752 7.71651ZM103.384 6.39595C102.807 6.07014 102.167 5.91577 101.485 5.91577V7.62244C101.902 7.62244 102.248 7.71455 102.544 7.88171L103.384 6.39595ZM101.485 5.91577C100.796 5.91577 100.152 6.0688 99.5791 6.39996L100.433 7.8777C100.713 7.71589 101.055 7.62244 101.485 7.62244V5.91577ZM99.5916 6.39288C99.0286 6.70566 98.5805 7.14833 98.2575 7.70735L99.7352 8.56115C99.9052 8.26695 100.13 8.04601 100.42 7.88478L99.5916 6.39288ZM98.2575 7.70735C97.9289 8.27606 97.7733 8.90937 97.7733 9.58472H99.48C99.48 9.17932 99.5708 8.84565 99.7352 8.56115L98.2575 7.70735ZM97.7733 9.58472C97.7733 10.108 97.8689 10.6161 98.0592 11.1037L99.6491 10.4832C99.536 10.1934 99.48 9.89568 99.48 9.58472H97.7733ZM98.0659 11.1203C98.2642 11.5987 98.561 12.0776 98.9358 12.5565L100.28 11.5047C99.9721 11.1114 99.7664 10.7656 99.6424 10.4666L98.0659 11.1203ZM98.9358 12.5565C99.3092 13.0336 99.7937 13.5564 100.38 14.1231L101.566 12.896C101.015 12.3629 100.589 11.8998 100.28 11.5047L98.9358 12.5565Z" fill="white" mask="url(#path-1-outside-1_0_564)"/>
<path d="M134.593 28.455C132.962 28.455 131.445 28.1422 130.042 27.5165C128.648 26.8908 127.426 26.0234 126.373 24.9142C125.33 23.805 124.515 22.5157 123.927 21.0463C123.34 19.5674 123.046 17.9794 123.046 16.2825C123.046 14.7182 123.306 13.2062 123.828 11.7462C124.349 10.2863 125.112 8.98747 126.117 7.84984C127.122 6.70274 128.35 5.79264 129.8 5.11955C131.26 4.44645 132.915 4.10991 134.763 4.10991C135.977 4.10991 137.124 4.26159 138.205 4.56496C139.285 4.86832 140.276 5.29019 141.177 5.83056C142.087 6.37093 142.878 7.00611 143.551 7.73608L142.428 9.38564C141.537 8.37126 140.418 7.5607 139.072 6.95397C137.726 6.33775 136.28 6.02965 134.735 6.02965C133.256 6.02965 131.933 6.30457 130.767 6.85442C129.611 7.40427 128.63 8.15795 127.824 9.11545C127.018 10.0635 126.406 11.149 125.989 12.3719C125.572 13.5854 125.364 14.8652 125.364 16.2114C125.364 17.6618 125.596 19.0128 126.06 20.2642C126.534 21.5061 127.193 22.5963 128.037 23.5348C128.881 24.4639 129.867 25.1891 130.995 25.7105C132.123 26.2225 133.336 26.4784 134.635 26.4784C135.688 26.4784 136.721 26.303 137.735 25.9523C138.75 25.6015 139.66 25.0943 140.466 24.4307C141.281 23.7671 141.926 22.9755 142.4 22.0559C142.883 21.1269 143.125 20.084 143.125 18.9275V18.1169H134.479V16.3678H145.343V18.4582C145.343 20.1172 145.03 21.5724 144.405 22.8238C143.779 24.0752 142.945 25.118 141.902 25.9523C140.859 26.7771 139.702 27.4027 138.432 27.8294C137.162 28.2465 135.882 28.455 134.593 28.455ZM150.456 28V3.5411H152.533V28H150.456ZM164.722 28.455C163.357 28.455 162.124 28.1232 161.025 27.4596C159.934 26.7865 159.067 25.867 158.422 24.7009C157.787 23.5348 157.469 22.2029 157.469 20.705C157.469 19.2261 157.782 17.9083 158.408 16.7517C159.043 15.5857 159.906 14.6661 160.996 13.993C162.096 13.3199 163.338 12.9834 164.722 12.9834C166.04 12.9834 167.234 13.2915 168.305 13.9077C169.377 14.5239 170.192 15.3771 170.751 16.4673V13.4384H172.827V28H170.751V24.9284C170.126 26.0281 169.287 26.8908 168.234 27.5165C167.182 28.1422 166.011 28.455 164.722 28.455ZM165.234 26.6491C166.324 26.6491 167.286 26.3978 168.12 25.8954C168.964 25.3835 169.628 24.6819 170.111 23.7908C170.595 22.8902 170.837 21.8663 170.837 20.7192C170.837 19.5626 170.595 18.5388 170.111 17.6476C169.637 16.7565 168.978 16.0597 168.135 15.5572C167.291 15.0453 166.324 14.7893 165.234 14.7893C164.144 14.7893 163.177 15.0453 162.333 15.5572C161.489 16.0597 160.825 16.7565 160.342 17.6476C159.858 18.5388 159.617 19.5626 159.617 20.7192C159.617 21.8663 159.858 22.8902 160.342 23.7908C160.825 24.6819 161.489 25.3835 162.333 25.8954C163.177 26.3978 164.144 26.6491 165.234 26.6491ZM178.807 28V13.4384H180.883V15.4293C181.461 14.6234 182.154 14.0167 182.959 13.6091C183.765 13.1919 184.666 12.9834 185.661 12.9834C186.856 12.9834 187.894 13.2583 188.775 13.8081C189.667 14.358 190.283 15.1069 190.624 16.055C191.183 15.1259 191.894 14.3817 192.757 13.8224C193.629 13.263 194.663 12.9834 195.857 12.9834C196.89 12.9834 197.81 13.1967 198.616 13.6233C199.422 14.0404 200.052 14.6566 200.507 15.4719C200.972 16.2777 201.204 17.2637 201.204 18.4297V28H199.128V19.0128C199.128 17.6855 198.782 16.6332 198.09 15.8559C197.398 15.0785 196.473 14.6898 195.317 14.6898C194.52 14.6898 193.8 14.8652 193.155 15.216C192.511 15.5667 191.999 16.0218 191.62 16.5811C191.24 17.131 191.051 17.6998 191.051 18.2875V28H188.975V18.7995C188.975 17.5386 188.629 16.5384 187.936 15.799C187.254 15.0595 186.349 14.6898 185.22 14.6898C184.424 14.6898 183.694 14.8604 183.03 15.2017C182.376 15.5335 181.855 15.9649 181.466 16.4958C181.078 17.0267 180.883 17.5718 180.883 18.1311V28H178.807Z" fill="#CEA561"/>
</svg>
